<?xml version="1.0" encoding="iso-8859-1"?>
<!-- Generator: Adobe Illustrator 19.0.0, SVG Export Plug-In . SVG Version: 6.00 Build 0)  -->
<svg version="1.1" id="Layer_1" xmlns="http://www.w3.org/2000/svg" xmlns:xlink="http://www.w3.org/1999/xlink" x="0px" y="0px"
	 viewBox="0 0 512 512" style="enable-background:new 0 0 512 512;" xml:space="preserve">
<g>
	<g>
		<g>
			<path d="M349.867,409.6c4.71,0,8.533-3.823,8.533-8.533v-25.6H384c4.71,0,8.533-3.823,8.533-8.533S388.71,358.4,384,358.4
				h-68.267c-4.71,0-8.533,3.823-8.533,8.533s3.823,8.533,8.533,8.533h25.6v25.6C341.333,405.777,345.156,409.6,349.867,409.6z"/>
			<path d="M349.867,136.533c-4.71,0-8.533,3.823-8.533,8.533v25.6h-25.6c-4.71,0-8.533,3.823-8.533,8.533s3.823,8.533,8.533,8.533
				h153.6c4.71,0,8.533-3.823,8.533-8.533s-3.823-8.533-8.533-8.533H460.8v-25.6c0-4.71-3.823-8.533-8.533-8.533
				c-4.71,0-8.533,3.823-8.533,8.533v25.6H409.6v-25.6c0-4.71-3.823-8.533-8.533-8.533s-8.533,3.823-8.533,8.533v25.6H358.4v-25.6
				C358.4,140.356,354.577,136.533,349.867,136.533z"/>
			<path d="M85.333,145.067c0-4.71-3.823-8.533-8.533-8.533s-8.533,3.823-8.533,8.533V281.6c0,4.71,3.823,8.533,8.533,8.533
				s8.533-3.823,8.533-8.533V145.067z"/>
			<path d="M8.533,85.333h238.933c4.71,0,8.533-3.823,8.533-8.533s-3.823-8.533-8.533-8.533h-230.4V51.2h93.867
				c4.71,0,8.533-3.823,8.533-8.533v-25.6h68.267v25.6c0,4.71,3.823,8.533,8.533,8.533h93.867v17.067H281.6
				c-4.71,0-8.533,3.823-8.533,8.533v358.4c0,4.71,3.823,8.533,8.533,8.533s8.533-3.823,8.533-8.533V85.333h8.533
				c4.71,0,8.533-3.823,8.533-8.533V42.667c0-4.71-3.823-8.533-8.533-8.533H204.8V17.067C204.8,7.654,197.146,0,187.733,0h-68.267
				C110.054,0,102.4,7.654,102.4,17.067v17.067H8.533C3.823,34.133,0,37.956,0,42.667V76.8C0,81.51,3.823,85.333,8.533,85.333z"/>
			<path d="M76.8,307.2c-4.71,0-8.533,3.823-8.533,8.533v34.133c0,4.71,3.823,8.533,8.533,8.533s8.533-3.823,8.533-8.533v-34.133
				C85.333,311.023,81.51,307.2,76.8,307.2z"/>
			<path d="M503.467,102.4H315.733c-4.71,0-8.533,3.823-8.533,8.533s3.823,8.533,8.533,8.533h179.2V281.6
				c0,18.825-15.309,34.133-34.133,34.133c-28.237,0-51.2,22.963-51.2,51.2v25.6c0,18.825-15.309,34.133-34.133,34.133h-59.733
				c-4.71,0-8.533,3.823-8.533,8.533s3.823,8.533,8.533,8.533h59.733c28.237,0,51.2-22.963,51.2-51.2v-25.6
				c0-18.825,15.309-34.133,34.133-34.133c28.237,0,51.2-22.963,51.2-51.2V110.933C512,106.223,508.177,102.4,503.467,102.4z"/>
			<path d="M298.667,460.8H59.733c-4.71,0-8.533,3.823-8.533,8.533s3.823,8.533,8.533,8.533h230.4v17.067H17.067v-17.067H25.6
				c4.71,0,8.533-3.823,8.533-8.533v-358.4c0-4.71-3.823-8.533-8.533-8.533c-4.71,0-8.533,3.823-8.533,8.533V460.8H8.533
				c-4.71,0-8.533,3.823-8.533,8.533v34.133C0,508.177,3.823,512,8.533,512h290.133c4.71,0,8.533-3.823,8.533-8.533v-34.133
				C307.2,464.623,303.377,460.8,298.667,460.8z"/>
		</g>
	</g>
</g>
<g>
</g>
<g>
</g>
<g>
</g>
<g>
</g>
<g>
</g>
<g>
</g>
<g>
</g>
<g>
</g>
<g>
</g>
<g>
</g>
<g>
</g>
<g>
</g>
<g>
</g>
<g>
</g>
<g>
</g>
</svg>
